<?xml version="1.0" encoding="utf-8"?>
<!-- Generator: Adobe Illustrator 19.0.0, SVG Export Plug-In . SVG Version: 6.00 Build 0)  -->
<svg version="1.1" id="Layer_1" xmlns="http://www.w3.org/2000/svg" xmlns:xlink="http://www.w3.org/1999/xlink" x="0px" y="0px"
	 viewBox="0 0 70 70" style="enable-background:new 0 0 70 70;" xml:space="preserve">
<style type="text/css">
	.st0{fill:#FFFFFF;stroke:#000000;stroke-miterlimit:10;}
	.st1{fill:#DC841A;stroke:#000000;stroke-miterlimit:10;}
	.st2{fill:none;stroke:#000000;stroke-width:3;stroke-miterlimit:10;}
	.st3{fill:#FDFDFE;}
</style>
<path id="XMLID_1_" class="st0" d="M35.8,48.6L13.2,29.4c-0.2-0.1-1.5-1.2-1.5-2.9c-0.1-1.6,0.9-2.6,1.1-2.8
	c3.4-3.5,6.9-6.9,10.3-10.4c2.7-3.7,5.3-7.4,8-11.1c1.5-1.7,4.1-1.9,5.8-0.5l22.6,19.2c1.7,1.5,1.9,4.1,0.5,5.8
	c-2.5,3.7-5,7.3-7.4,11c-3.6,3.5-7.2,7-10.9,10.6C40.1,49.8,37.5,50,35.8,48.6z"/>
<path id="XMLID_2_" class="st1" d="M11.1,24.3c-26.2,29,5.3,44.5,33.4,40.3c13-1.9,15.3-8.3,18.6-16.8c2.8-7.4,2.3-38.4-1.8-27.4
	C61,21.3,55.1,37,43.6,41.2C33.3,44.9,21.2,35,11.4,24.8"/>
<path id="XMLID_3_" class="st0" d="M12.8,39.8"/>
<path id="XMLID_4_" class="st0" d="M-5.2,15.5"/>
<path id="XMLID_6_" class="st2" d="M47.7,23.1L46,25.2c-1.5,1.9-4.2,2.2-6,0.8l-4.7-3.8c-1.8-1.5-3.8-2.4-2.3-4.2l3.4-3.9
	c0.8-1,1.4-2.8,2.6-2.9c1-0.1,2.6,1.5,3.4,2.1l4.7,3.8C48.9,18.5,49.2,21.2,47.7,23.1z"/>
<path id="XMLID_5_" d="M21.9,30.6l2,1.6c0.2,0.2,0.6,0.1,0.7-0.1L41.1,11c0.2-0.2,0.1-0.6-0.1-0.7l-2-1.6c-0.2-0.2-0.6-0.1-0.7,0.1
	L21.8,29.9C21.6,30.1,21.6,30.4,21.9,30.6z"/>
<path id="XMLID_7_" d="M35.7,38.6l1.7,0.6c0.6,0,1.1-0.6,1.1-1.1l2-11.9c0.1-0.5-0.3-1-0.8-1.1L38,24.8c-0.5-0.1-1,0.3-1.1,0.8
	l-2,11.9C34.8,38,35.2,38.5,35.7,38.6z"/>
<path id="XMLID_10_" class="st3" d="M61.9,24.3c4.7,11.2-4.4,29.4-7.6,31.9c1-4,1.6-6.5,1.5-9.9c-2,1.4-3.8,2.2-5.5,4.3
	c0.9-2.3,1-4.5,1.2-6.4c-1.8,0.1-6.4,0.6-10.9,1.6C50.2,42,59,33.1,61.9,24.3z"/>
</svg>
