<?xml version="1.0" encoding="utf-8"?>
<!-- Generator: Adobe Illustrator 19.0.0, SVG Export Plug-In . SVG Version: 6.00 Build 0)  -->
<svg version="1.1" id="Layer_1" xmlns="http://www.w3.org/2000/svg" xmlns:xlink="http://www.w3.org/1999/xlink" x="0px" y="0px"
	 viewBox="0 0 50 50" style="enable-background:new 0 0 50 50;" xml:space="preserve">
<style type="text/css">
	.st0{fill:#FFFFFF;}
</style>
<path id="XMLID_1_" class="st0" d="M1.5,12.4c1.1-0.2,2.1,0,3,0.5c1.5,0.8,3,1.6,4.6,2.4c0.2-0.8,0.1-1.7,0.1-2.5c0-0.8,0-1.6,0-2.4
	c0-0.4,0.6-1.6,0.9-2c0.7-0.2,1.5-0.3,2.1,0.5c0,2.6,0,5.3,0,8c3.9,2,7.9,4,11.9,6.1c0.2-1.9,0.1-3.8,0.1-5.7c0-1.9,0-3.8,0-5.8
	c-2.4-1.7-5.4-2.9-8.1-4.3c0-0.4,0-0.8,0-1.3c0.3-0.2,0.8-0.5,1.5-0.9c2,0.8,4.1,2,6.5,3.2c0.3-2.4,0-4.6,0.2-7
	c0.6-0.1,1.2-0.3,1.8-0.4c0.5,0.4,0.8,0.7,1.2,1.1c-0.2,2,0.2,4.1-0.3,6.3c2.3-1.1,4.5-2.1,6.7-3.2c0.5,0.2,0.9,0.4,1.3,0.6
	c0,0.5,0,1,0,1.6c-2.6,1.4-5.3,2.8-8,4.1c0.5,1.9,0.2,3.8,0.2,5.7c0.1,1.9,0,3.9,0,6c3.8-2.3,8-3.8,11.6-6.1c0-2.6,0-5.1,0-7.6
	c0.6-0.4,0.9-1.2,2-0.9c0.3,0.3,0.6,0.6,1.1,1.1c0,1.8,0,3.9,0,6.1c2-1,3.9-2,6-3c0.4,0,1,0,1.5,0c0.8,0.4,0.6,1,0.7,1.7
	c-1.9,1.5-4.5,2.2-6.5,3.8c2.2,1.3,4.7,2,6.4,3.6c-0.2,0.5-0.3,0.8-0.4,1.3c-0.3,0.1-0.7,0.3-1.2,0.5c-2.6-1.3-5.3-2.7-7.9-4.1
	c-3.8,1.9-7.6,3.8-11.7,5.9c4,2.1,7.9,4.1,11.7,5.9c2.7-1.4,5.4-2.7,8.1-4c0.4,0.2,0.6,0.3,1.1,0.5c0.1,0.2,0.3,0.6,0.6,0.9
	c-0.2,0.3-0.3,0.6-0.6,1.1c-2,0.8-4,1.9-6.1,3.1c2.4,1.2,4.5,2.3,6.6,3.3c0,0.8,0.3,1.5-0.8,1.9c-0.3,0-0.9,0-1.3,0c-2-1-3.9-2-6-3
	c-0.1,1.1,0,2.1,0,3.1c0,1,0,2,0,3.1c-0.3,0.2-0.8,0.4-1.2,0.6c-0.5,0.3-1.2,0.4-1.7-0.2c0-2.6,0-5.3,0-8c-3.5-2-7.2-3.7-10.8-5.5
	c-0.3-0.2-0.7-0.2-1.2-0.3c0.5,2,0.2,3.8,0.2,5.7c0.1,1.9,0,3.9,0,5.9c1.4,0.7,2.9,1.4,4.3,2.2c1.3,0.8,3.2,1,3.8,2.6
	c-0.2,0.4-0.5,0.8-0.7,1c-0.4,0.4-1.4,0.3-1.9,0c-1.8-0.9-3.6-1.8-5.4-2.7c-0.1,0-0.3,0-0.4,0c0.4,1.4,0.4,5.3-0.3,7
	c-0.6,0-1.2,0-1.9,0c-0.2-0.1-0.4-0.3-0.6-0.6c0-2.1,0-4.3,0-6.6c-2.3,1-4.4,2.2-6.5,3.2c-0.6-0.2-1.1-0.4-1.6-0.6
	c0-0.5,0-1.1,0-1.7c2.7-1.3,5.3-2.7,8.1-4c0-3.7,0-7.5,0-11.5c-0.4,0.1-0.9,0-1.2,0.2c-1.5,0.7-2.9,1.5-4.3,2.2
	c-2.1,1.1-4.3,2.2-6.4,3.2c0,2.8,0,5.4,0,8c-0.3,0.2-0.5,0.4-0.7,0.6c-0.4,0-0.8,0-1.4,0c-0.3-0.4-0.6-0.8-1-1.3
	c0.1-1.1-0.2-2.2,0.3-3.5C8.7,36.6,9.5,35.7,9,35c-2.1,1-4.2,2.1-6.5,3.2c-0.5-0.2-1-0.5-1.5-0.8C1,37,1,36.5,1,36
	c1-0.5,2.1-1,3.2-1.6c1-0.5,2.1-1.1,3.2-1.7C7.3,32.4,7,32,6.7,31.9c-1.3-0.7-2.7-1.2-4-1.9c-0.5-0.2-0.9-0.6-1.2-0.9
	c0-0.5,0-0.8,0-1.3c0.5-0.3,1-0.5,1.5-0.8c2.6,1.3,5.2,2.7,7.9,4c3.7-1.8,7.5-3.8,11.4-5.7c-0.3-0.3-0.4-0.7-0.7-0.8
	c-1.5-0.7-3-1.3-4.4-2c-1.2-0.6-2.4-1.3-3.6-2c-2.1-1.3-3.1-1.4-5.1-0.2c-1.8,1.1-3.9,1.9-5.9,3.1c-0.3-0.5-0.6-0.9-0.9-1.3
	c-0.1,0.1-0.2,0.2-0.3,0.2c0-0.4,0-0.7,0-1.2c1.6-1.6,4.4-1.8,6.1-3.6c-2.3-1.2-4.5-2.3-6.7-3.5C1.1,13.4,1.3,12.9,1.5,12.4z"/>
</svg>
