<?xml version="1.0" encoding="utf-8"?>
<!-- Generator: Adobe Illustrator 19.0.0, SVG Export Plug-In . SVG Version: 6.00 Build 0)  -->
<svg version="1.1" id="Layer_1" xmlns="http://www.w3.org/2000/svg" xmlns:xlink="http://www.w3.org/1999/xlink" x="0px" y="0px"
	 viewBox="0 0 30 30" style="enable-background:new 0 0 30 30;" xml:space="preserve">
<style type="text/css">
	.st0{fill:#FFFFFF;}
</style>
<path id="XMLID_9_" class="st0" d="M14.4,30c-0.1-0.2-0.2-0.5-0.2-0.7c0-0.7,0-1.4,0-2.3c-0.3,0.1-0.6,0.1-0.8,0.2
	c-0.4,0.1-0.8,0.1-1.1,0.1c-0.2-0.3-0.3-0.5-0.4-0.7c0.4-1,1.6-1.1,2.3-1.7c0-0.2,0-0.4,0-0.5c-0.5-0.2-0.9,0.1-1.3,0.3
	c-0.5,0.4-1.2,0.5-1.7,0.8c-0.4,0.3-0.7,0.1-1.2,0.2c-0.1-0.4-0.2-0.7-0.3-1.1c1.4-1.1,3-1.6,4.5-2.5c0-0.3,0-0.6,0-1
	c-1.9-0.2-3.6-1-4.8-2.3C9,19,8.6,19.1,8.2,19.3c0,1.4,0,2.9,0,4.3C8,23.8,7.9,23.9,7.8,24c-0.3,0-0.5,0-0.8,0
	c-0.1-0.1-0.3-0.3-0.4-0.4c-0.1-0.1-0.1-0.3-0.3-0.5c0-0.8,0-1.7,0-2.7c-0.3,0.1-0.5,0.2-0.7,0.3c0,0.7,0,1.4,0,2.2
	c-0.3,0.2-0.7,0.4-0.9,0.5C4.3,23.2,4,23,3.7,22.8c0-0.3,0-0.7,0-1.1c-1.2,0.3-2,1.4-3.3,1.2c-0.6-0.3-0.4-0.7-0.4-1
	c0.6-0.9,1.7-1,2.6-1.6c-0.4-0.2-0.7-0.4-1-0.6c0-0.3,0-0.6,0-1.1c0.3-0.1,0.7-0.2,0.9-0.3c0.8,0.4,1.4,0.7,2,1
	c0.4-0.1,0.7-0.3,1.1-0.4c-1.2-0.6-2.3-1.2-3.5-1.8c0-0.4,0-0.7,0-1c0.2-0.1,0.5-0.2,0.8-0.3c1.5,0.7,3.1,1.4,4.7,2.2
	c0.3-0.3,0.6-0.5,0.9-0.7c-0.7-1.5-0.7-3,0-4.6c-0.3-0.2-0.7-0.4-1.1-0.6c-1.1,0.6-2.3,1.2-3.4,1.8c-0.8,0.4-1.1,0.5-1.8,0
	c0-0.3,0-0.7,0-1c1-0.5,2.1-1.1,3.1-1.6c0-0.4-0.2-0.6-0.8-0.5c-0.8,0.4-1.5,1-2.5,0.9c-0.1-0.1-0.2-0.2-0.4-0.3c0-0.3,0-0.6,0-0.8
	C2,10.2,2.3,9.9,2.7,9.7C1.7,9.2,0.9,8.8,0,8.4c0-0.3,0-0.5,0-0.8C0.2,7.4,0.5,7.2,0.7,7c1.1,0.1,1.8,1,2.9,1.2c0-0.4,0-0.7,0-1
	C3.9,7,3.9,6.9,4.1,6.8c0.4,0,0.7,0,1.2,0c0.6,0.8,0.1,1.6,0.3,2.5c0.1,0.1,0.4,0.2,0.7,0.4c0-0.9,0-1.6,0-2.3
	c0-0.6,0.1-1.1,0.6-1.5c0.4-0.1,0.9-0.1,1.2,0.3c0,1.4,0,2.9,0,4.4c0.4,0.2,0.7,0.4,1.1,0.6c1.3-1.3,2.8-2.2,4.9-2.4
	c0-0.3,0-0.7,0-1c-1.4-1-3.1-1.4-4.3-2.5C9.7,5,9.6,4.6,10,4.3c0.5-0.2,0.9-0.1,1.3,0.2c0.8,0.6,1.9,0.9,2.8,1.4c0-0.3,0-0.5,0-0.8
	c-0.6-0.6-1.8-0.6-2.4-1.5C11.9,3.3,12,3,12.2,2.7c0.7-0.1,1.4,0,2,0.5c0-1,0-1.9,0-2.9c0.3-0.2,0.5-0.3,0.8-0.4
	c0.2,0.1,0.5,0.2,0.8,0.3C15.8,0.6,16,1,16,1.4c0.1,0.5,0,0.9,0,1.5c0.3-0.1,0.5-0.2,0.8-0.3c0.3,0,0.6,0,0.9,0
	c0.1,0.3,0.3,0.6,0.4,0.9c-0.5,0.8-1.4,0.9-2.1,1.3c0,0.3,0,0.5,0,0.8c0.1,0,0.3,0,0.4,0c0.7-0.4,1.5-0.6,2.1-1.1
	c0.4-0.3,1.1-0.6,1.6,0.1c0,0.3,0,0.6,0,1c-1.4,0.7-2.9,1.4-4.4,2.2C15.9,7.9,16,8,16,8.2c0,0.2,0,0.4,0,0.6
	c1.8,0.3,3.4,1.1,4.6,2.4c0.2-0.1,0.3-0.2,0.5-0.3c0.2-0.1,0.4-0.2,0.6-0.3c0-1.4,0-2.9,0-4.4c0.2-0.1,0.3-0.3,0.4-0.4
	c0.3,0,0.5,0,0.8,0c0.2,0.2,0.4,0.5,0.6,0.9c0,0.9,0,1.8,0,2.9c0.3-0.1,0.5-0.2,0.7-0.3c0-0.7,0-1.5,0-2.1c0.2-0.1,0.3-0.3,0.4-0.4
	c0.5,0.1,1-0.2,1.4,0.5c0,0.2,0,0.5,0,0.9c1.1-0.2,1.8-1,2.9-1.2C29.5,7.3,30,7.4,29.9,8c-0.6,0.8-1.7,1.1-2.6,1.7
	c0.3,0.2,0.7,0.5,1,0.7c0,0.3,0,0.6,0,1c-1.2,0.7-2-0.3-3-0.7c-0.2,0.1-0.4,0.3-0.8,0.5c1.2,0.6,2.2,1.1,3.3,1.6c0,0.3,0,0.7,0,1
	c-0.2,0.2-0.9,0.3-1.3,0.2c-0.8-0.4-1.6-0.7-2.3-1.1c-0.5-0.2-1-0.5-1.5-0.8c-0.4,0.2-0.7,0.4-1.1,0.6c0.6,1.5,0.9,3,0,4.5
	c0.3,0.2,0.5,0.4,0.8,0.7c0.8-0.2,3.6-1.5,4.5-2.1c0.3,0.1,0.6,0.2,1,0.3c0,0.3,0,0.7,0,1c-0.5,0.3-1,0.6-1.5,0.8
	c-0.5,0.3-1.1,0.5-1.7,0.8c0.2,0.2,0.3,0.4,0.5,0.5c1,0,1.5-0.8,2.4-1c0.3,0.1,0.6,0.2,0.9,0.4c0,0.3,0,0.7,0,1
	c-0.4,0.2-0.7,0.4-1.1,0.6c0.9,0.6,2.1,0.7,2.7,1.7c0,0.3,0.1,0.6-0.4,0.9c-0.2,0-0.5,0-0.8,0c-0.7-0.4-1.5-0.8-2.4-1.2
	c0,0.5-0.1,0.8-0.1,1.2c-0.4,0.5-0.9,0.3-1.4,0.3c-0.1-0.1-0.3-0.2-0.4-0.3c0-0.7,0-1.4,0-2.1c-0.3-0.3-0.5-0.5-1-0.3
	c0,0.1-0.1,0.2-0.1,0.2c0.3,0.4,0.3,0.9,0.2,1.4c-0.1,0.3-0.5,0.7,0.2,1c-0.2,0.3-0.4,0.7-0.6,1c-0.3,0-0.6,0-0.9,0
	c-0.1-0.1-0.2-0.2-0.3-0.3c0-1.4,0-2.9,0-4.4c-0.4-0.2-0.8-0.4-1.2-0.5c-0.5,0.4-1.1,0.9-1.7,1.3c-0.7,0.5-1.7,0.7-2.6,0.9
	c-0.2,0.1-0.4,0.2-0.6,0.3c0.1,0.1,0.2,0.1,0.2,0.2c-0.1,0.1-0.2,0.3-0.3,0.5c1.5,0.8,3,1.6,4.5,2.3c0.1,0.5,0.2,0.9-0.4,1.2
	c-1.4,0.1-2.3-0.9-3.6-1.4c-0.2,0.1-0.3,0.3-0.6,0.5c0.7,0.6,1.4,1,2.2,1.3c0.1,0.2,0.2,0.4,0.4,0.6c-0.1,0.2-0.3,0.5-0.4,0.7
	c-0.6-0.1-1.2-0.2-1.9-0.3c0.3,1,0.4,2.1-0.3,3C15.1,30,14.8,30,14.4,30z M11,12c0.9,0.6,1.9,1.1,3.1,1.5c0-1.1,0-2,0-3.1
	C12.8,10.6,11.9,11.2,11,12z M14.1,16.3C13,16.9,12,17.4,11,17.9c0.9,0.8,1.7,1.6,3.2,1.5C14.1,18.4,14.1,17.4,14.1,16.3z M16.7,15
	c1,0.5,2.1,1,3,1.5c0.6-0.8,0.3-1.7,0.4-2.4c-0.2-0.3-0.3-0.5-0.4-0.6C18.8,14,17.8,14.5,16.7,15z M10.2,16.4
	c0.5-0.2,0.9-0.5,1.4-0.7c0.7-0.3,0.7-0.3,1.3-0.9c-0.9-0.5-1.8-0.9-2.7-1.4c-0.4,0.5-0.4,1-0.4,1.5C9.7,15.5,9.6,16,10.2,16.4z
	 M15.9,16.4c-0.1,0-0.1,0.1-0.2,0.1c0.4,0.3,0.4,0.6,0.1,0.9c0.4,0.3,0.4,0.6,0,0.9c0.5,0.2,0.1,0.7,0.4,1c1.2-0.1,2-0.8,2.8-1.6
	C17.9,17.4,16.9,16.9,15.9,16.4z M18.9,12c-0.8-0.9-1.7-1.4-2.9-1.5c0,0.6,0,1,0,1.5c0,0.5,0,1,0,1.5C17,13,18,12.5,18.9,12z"/>
</svg>
